<svg xmlns="http://www.w3.org/2000/svg" viewBox="0 0 24 24">
  <path d="M12 0c-3.153 0-5.467 1.637-6.84 4.542-.714 1.503-.974 3.018-.737 4.512 1.344 1.575 2.688 2.373 4.148 2.373 1.597 0 2.503-.984 3.847-.984 1.344 0 2.441.984 3.847.984 1.46 0 2.723-.798 4.067-2.373.237-1.494-.023-3.009-.737-4.512C17.467 1.637 15.153 0 12 0zm-1.892 12.336c-.469 0-.91-.122-1.282-.365C8.016 11.233 8.358 9.878 9.475 8.793c.31-.3 .658-.574 1.053-.827.604-.383 1.258-.691 2.01-.892.428-.113.882-.169 1.349-.169 2.046 0 3.863 1.831 4.45 4.507-.378.13-.77.202-1.178.202-1.996 0-3.328-1.579-4.887-1.579-1.559 0-2.822 1.579-4.887 1.579zm6.096 7.644c-1.344 0-2.688-.798-4.148-2.373-1.46-.798-2.91-1.196-4.37-1.196-1.597 0-2.503.984-3.847.984-1.344 0-2.441-.984-3.847-.984-1.46 0-2.723.798-4.067 2.373-.237 1.494.023 3.009.737 4.512C6.533 22.363 8.847 24 12 24c3.153 0 5.467-1.637 6.84-4.542.714-1.503.974-3.018.737-4.512z"/>
</svg> 