<svg xmlns="http://www.w3.org/2000/svg" viewBox="0 0 48 48">
  <path fill="#EA4335" d="M24 9.5c3.54 0 6.71 1.22 9.21 3.6l6.63-6.63C35.85 2.57 30.2 0 24 0 14.54 0 6.47 5.37 2.67 13.06l8.9 6.94c.94-2.85 3.47-4.99 6.36-4.99z"/>
  <path fill="#4285F4" d="M46.7 23.47h-2.99V20.2h-3.23v3.27H37.5V26.7h3.23v3.26h2.99V26.7h3.21v-3.23zm-22.7 20.44c6.48 0 11.96-4.52 13.57-10.6l-8.9-6.94c-.95 2.85-3.48 4.99-6.36 4.99-3.9 0-7.14-3.14-7.14-7.04s3.24-7.04 7.14-7.04c2.89 0 5.42 2.14 6.36 4.99l8.9-6.94C35.96 5.37 30.48 0 24 0 14.52 0 6.45 5.37 2.65 13.06l8.9 6.94c.94-2.85 3.47-4.99 6.36-4.99z"/>
  <path fill="#FBBC04" d="M46.7 23.47h-2.99V20.2h-3.23v3.27H37.5V26.7h3.23v3.26h2.99V26.7h3.21v-3.23zM24 48c8.71 0 16.03-5.37 19.33-13.06l-8.9-6.94c-.95 2.85-3.48 4.99-6.36 4.99-3.9 0-7.14-3.14-7.14-7.04s3.24-7.04 7.14-7.04c2.89 0 5.42 2.14 6.36 4.99l8.9-6.94C35.96 5.37 30.48 0 24 0 14.52 0 6.45 5.37 2.65 13.06l8.9 6.94c.94-2.85 3.47-4.99 6.36-4.99z"/>
  <path fill="#0F9D58" d="M24 48c8.71 0 16.03-5.37 19.33-13.06l-8.9-6.94c-.95 2.85-3.48 4.99-6.36 4.99-3.9 0-7.14-3.14-7.14-7.04s3.24-7.04 7.14-7.04c2.89 0 5.42 2.14 6.36 4.99l8.9-6.94C35.96 5.37 30.48 0 24 0 14.52 0 6.45 5.37 2.65 13.06l8.9 6.94c.94-2.85 3.47-4.99 6.36-4.99z"/>
</svg> 